<?xml version="1.0" encoding="UTF-8" standalone="no"?>
<!-- Created with Inkscape (http://www.inkscape.org/) -->

<svg
   width="16"
   height="16"
   viewBox="0 0 16 16"
   version="1.1"
   id="svg1"
   inkscape:export-filename="1peace favicon.png"
   inkscape:export-xdpi="3000"
   inkscape:export-ydpi="3000"
   inkscape:version="1.4.2 (1:1.4.2+202505120737+ebf0e940d0)"
   sodipodi:docname="favicon.svg"
   xmlns:inkscape="http://www.inkscape.org/namespaces/inkscape"
   xmlns:sodipodi="http://sodipodi.sourceforge.net/DTD/sodipodi-0.dtd"
   xmlns="http://www.w3.org/2000/svg"
   xmlns:svg="http://www.w3.org/2000/svg">
  <sodipodi:namedview
     id="namedview1"
     pagecolor="#ffffff"
     bordercolor="#000000"
     borderopacity="0.25"
     inkscape:showpageshadow="2"
     inkscape:pageopacity="0.0"
     inkscape:pagecheckerboard="0"
     inkscape:deskcolor="#d1d1d1"
     inkscape:document-units="px"
     inkscape:zoom="21.8125"
     inkscape:cx="12.034384"
     inkscape:cy="7.1289397"
     inkscape:window-width="1366"
     inkscape:window-height="696"
     inkscape:window-x="0"
     inkscape:window-y="0"
     inkscape:window-maximized="1"
     inkscape:current-layer="layer1" />
  <defs
     id="defs1" />
  <g
     inkscape:label="Layer 1"
     inkscape:groupmode="layer"
     id="layer1">
    <circle
       style="fill:#690005;stroke-width:4.25483;stroke-linecap:round;stroke-linejoin:round;paint-order:fill markers stroke;fill-opacity:1"
       id="path1"
       cx="8"
       cy="8"
       r="8" />
    <g
       id="g1"
       transform="matrix(0.17644796,0,0,0.1753459,60.17404,-172.50148)"
       style="fill:#ffb4ab;fill-opacity:1">
      <path
         style="display:inline;opacity:1;mix-blend-mode:normal;fill:#ffb4ab;fill-opacity:1;stroke:none;stroke-width:0.0816233"
         d="m -295.65391,1063.6011 -1.66278,-0.014 -0.36731,-0.026 -0.3673,-0.025 -0.89787,-0.084 -0.89785,-0.084 -0.3469,-0.049 -0.34689,-0.049 v -0.052 -0.052 l 0.65257,-0.5518 0.65259,-0.5517 1.16332,0.092 1.16332,0.092 h 1.63248 1.63247 l 0.93866,-0.085 0.93867,-0.086 0.73131,-0.087 0.73131,-0.087 0.61547,-0.1236 0.61549,-0.1236 0.89785,-0.1995 0.89786,-0.1994 0.85705,-0.2465 0.85705,-0.2464 0.85704,-0.2934 0.85705,-0.2934 0.97459,-0.4065 0.97459,-0.4064 1.18843,-0.5938 1.18844,-0.5938 0.85705,-0.5126 0.85705,-0.5125 0.89785,-0.6117 0.89786,-0.6117 0.6938,-0.5389 0.6938,-0.539 0.93868,-0.8271 0.93865,-0.8271 0.93894,-0.9697 0.93892,-0.9696 0.73435,-0.8839 0.73437,-0.8839 0.12141,-0.1984 0.12143,-0.1984 -0.18093,-0.5094 -0.18093,-0.5093 -0.22251,-0.8979 -0.22249,-0.8978 0.003,-1.4284 0.003,-1.4285 0.22218,-0.7293 0.22219,-0.7294 0.26457,-0.5371 0.26457,-0.537 0.30706,-0.4626 0.30704,-0.4626 0.45814,-0.5156 0.45813,-0.5157 0.53745,-0.4794 0.53746,-0.4794 0.44816,-0.3335 0.44816,-0.3335 0.93945,-0.5816 0.93943,-0.5817 0.91433,-0.4799 0.91433,-0.4799 0.0454,0.045 0.0454,0.045 -0.12736,0.6863 -0.12735,0.6862 -0.31969,1.2244 -0.31972,1.2243 -0.28333,0.8571 -0.28333,0.857 -0.20104,0.5306 -0.20104,0.5305 -0.3837,0.8979 -0.38369,0.8978 -0.59848,1.1992 -0.5985,1.1992 -0.63324,1.0455 -0.63321,1.0454 -0.48796,0.6938 -0.48794,0.6938 -0.53188,0.6938 -0.5319,0.6938 -0.82131,0.9369 -0.82132,0.9368 -0.73645,0.7364 -0.73645,0.7365 -0.93682,0.8186 -0.93684,0.8186 -0.57136,0.4494 -0.57138,0.4494 -0.53054,0.3737 -0.53055,0.3737 -0.73462,0.4886 -0.73461,0.4885 -0.94185,0.5334 -0.94183,0.5335 -0.73145,0.3666 -0.73143,0.3666 -0.97949,0.4269 -0.97948,0.427 -0.86499,0.3181 -0.86499,0.3182 -1.17559,0.3572 -1.1756,0.3571 -1.14273,0.2526 -1.14273,0.2525 -1.0203,0.1623 -1.02029,0.1624 -1.3981,0.1255 -1.3981,0.1255 z m -7.39096,-0.8062 h -0.23035 l -0.89784,-0.2348 -0.89787,-0.2348 -0.77542,-0.243 -0.77542,-0.2431 -0.80088,-0.2917 -0.80088,-0.2916 -0.0647,-0.04 -0.0647,-0.04 0.10894,-0.4719 0.10895,-0.4718 0.12023,-0.5306 0.12023,-0.5306 0.12153,-0.5305 0.12152,-0.5306 0.21217,-0.9794 0.21216,-0.9795 0.27661,-1.1836 0.2766,-1.1835 0.25713,-1.1427 0.25711,-1.1428 0.20112,-0.8978 0.20112,-0.8979 0.27623,-1.1835 0.27624,-1.1836 0.0372,-0.204 0.0372,-0.2041 0.25444,-1.1019 0.25444,-1.1019 0.17303,-0.7754 0.17303,-0.7755 0.26774,-1.1427 0.26774,-1.1427 0.24764,-1.1019 0.24764,-1.102 0.1649,-0.7346 0.16491,-0.7346 0.33213,-1.4692 0.33216,-1.4692 0.12029,-0.4681 0.12029,-0.4681 v -0.1237 -0.1237 h -1.88521 -1.88522 l -0.70559,0.6602 -0.70561,0.6602 -0.81697,0.5943 -0.81697,0.5944 -0.6938,0.3733 -0.6938,0.3732 -0.68619,0.2928 -0.68619,0.2927 -0.82384,0.2727 -0.82385,0.2728 -0.34716,0.059 -0.34715,0.059 -0.0386,0.1764 -0.0386,0.1765 -0.19947,0.857 -0.19949,0.857 -0.12914,0.5714 -0.12916,0.5714 2.4e-4,0.09 2.5e-4,0.09 1.3672,0.045 1.36718,0.045 0.40608,0.1527 0.40608,0.1527 0.19406,0.2838 0.19407,0.2839 -0.0405,0.6122 -0.0405,0.6122 -0.13875,0.6938 -0.13875,0.6938 -0.19878,0.9386 -0.19877,0.9387 -0.11538,0.4897 -0.11539,0.4898 -0.16564,0.6938 -0.16564,0.6938 -0.16979,0.7754 -0.16978,0.7754 -0.0422,0.1429 -0.0422,0.1428 h -1.20817 -1.20815 l -0.7249,-0.1221 -0.72489,-0.122 -0.36731,-0.09 -0.36731,-0.09 -0.40812,-0.1164 -0.40811,-0.1163 -0.28569,-0.087 -0.28568,-0.087 -1.0203,-0.4571 -1.02028,-0.4571 -0.61218,-0.3672 -0.61218,-0.3673 -0.57136,-0.4062 -0.57137,-0.4062 -0.68047,-0.5783 -0.68049,-0.5783 -0.76303,-0.8844 -0.76303,-0.8843 -0.45342,-0.6814 -0.45343,-0.6815 -0.39836,-0.7605 -0.39838,-0.7605 -0.29623,-0.7447 -0.29625,-0.7448 v -0.1 -0.1 l 0.26527,0.1772 0.26528,0.1772 0.61218,0.2872 0.61217,0.2872 0.68263,0.1193 0.68263,0.1194 0.0342,-0.034 0.0342,-0.034 -0.57984,-0.3504 -0.57985,-0.3503 -0.51325,-0.5082 -0.51325,-0.5083 -0.46037,-0.6919 -0.46038,-0.6919 -0.31781,-0.6847 -0.31782,-0.6847 -0.28611,-0.8979 -0.28612,-0.8978 -0.16933,-0.8163 -0.16933,-0.8162 -0.091,-1.2244 -0.091,-1.2243 0.0276,-0.6122 0.0276,-0.6122 0.39145,0.588 0.39145,0.588 0.54082,0.4955 0.5408,0.4956 0.57778,0.3168 0.57777,0.3167 0.30609,0.083 0.30609,0.083 v -0.058 -0.058 l -0.41449,-0.405 -0.41448,-0.4051 -0.43845,-0.6188 -0.43848,-0.6188 -0.27194,-0.5239 -0.27194,-0.524 -0.13809,-0.3673 -0.13809,-0.3673 -0.19764,-0.6938 -0.19764,-0.6938 -0.1095,-0.6121 -0.1095,-0.6122 0.003,-1.1836 0.003,-1.1835 0.10511,-0.5714 0.10511,-0.5713 0.24213,-1.0148 0.24215,-1.0149 0.0478,-0.077 0.0478,-0.077 0.19238,0.48 0.19237,0.48 0.17759,0.3265 0.1776,0.3265 0.34556,0.4489 0.34556,0.4489 0.35457,0.337 0.35455,0.337 0.35915,0.2548 0.35915,0.2548 h 0.0631 0.0631 l -0.4344,-0.8775 -0.4344,-0.8774 -0.25305,-0.744 -0.25307,-0.744 -0.12103,-0.6844 -0.12103,-0.6844 -0.002,-0.8366 -0.002,-0.8366 0.12974,-0.7518 0.12973,-0.7519 0.2452,-0.7378 0.24519,-0.7379 0.43963,-0.8978 0.43963,-0.8979 0.51241,-0.8504 0.5124,-0.8505 0.10145,-0.034 0.10144,-0.034 v 0.2477 0.2476 l 0.0874,0.4325 0.0874,0.4326 0.20824,0.6423 0.20823,0.6424 0.28002,0.4954 0.28002,0.4954 0.22017,0.2974 0.22016,0.2974 0.34789,0.3936 0.34789,0.3936 0.0432,-0.043 0.0432,-0.043 -0.16036,-0.4795 -0.16035,-0.4796 -0.13043,-0.4673 -0.13044,-0.4673 -0.12027,-0.7978 -0.12026,-0.7979 -3.2e-4,-0.6627 -3.4e-4,-0.6627 0.12424,-0.7124 0.12423,-0.7124 0.16553,-0.5022 0.16554,-0.5023 0.36691,-0.7376 0.36689,-0.7377 0.54239,-0.7315 0.5424,-0.7316 0.90274,-0.8842 0.90275,-0.8842 0.68337,-0.585 0.68338,-0.5851 0.19407,-0.1496 0.19409,-0.1497 v 0.1007 0.1007 l -0.13193,0.6511 -0.13192,0.6511 0.0405,1.2752 0.0404,1.2752 0.17676,0.653 0.17675,0.653 0.1552,0.457 0.15519,0.4569 0.29646,0.6246 0.29644,0.6245 h 0.014 l 0.014,10e-5 v -1.8978 -1.8978 l 0.14799,-0.6938 0.14798,-0.6938 0.20611,-0.653 0.20611,-0.6529 0.33437,-0.6441 0.33439,-0.6441 0.33819,-0.4579 0.33821,-0.4578 0.43307,-0.4723 0.43308,-0.4723 0.66246,-0.53184 0.66246,-0.53179 0.89785,-0.54889 0.89787,-0.54889 0.47565,-0.2279 0.47563,-0.2279 0.38141,-0.16502 0.3814,-0.16504 0.77542,-0.2833 0.77543,-0.28332 1.13541,-0.32199 1.13541,-0.322 0.0222,0.0222 0.0222,0.0222 -0.46513,0.6926 -0.46513,0.69258 -0.50032,0.85705 -0.50032,0.85705 -0.35603,0.7346 -0.35603,0.7346 -0.17979,0.4489 -0.17978,0.449 -0.20361,0.5713 -0.2036,0.5714 -0.25428,1.0155 -0.25428,1.0155 -0.11665,0.9404 -0.11667,0.9403 6.7e-4,0.9826 6.7e-4,0.9826 0.11619,0.9853 0.11619,0.9853 0.25327,1.0145 0.25328,1.0145 0.28804,0.857 0.28805,0.8571 0.33841,0.7738 0.33842,0.7739 0.54055,1.0627 0.54054,1.0626 0.67947,1.1427 0.67946,1.1428 1.25712,1.8773 1.25712,1.8773 0.54619,0.782 0.5462,0.7821 0.53883,0.7688 0.53885,0.7688 1.05771,1.5917 1.05772,1.5917 0.17241,0.2856 0.17241,0.2857 0.56807,0.9795 0.56806,0.9795 0.4125,0.7754 0.4125,0.7754 0.50436,1.142 0.50436,1.1419 0.31612,0.9455 0.31614,0.9455 0.16614,0.647 0.16616,0.6469 0.20216,1.2054 0.20216,1.2055 v 1.6056 1.6056 l -0.1641,1.0661 -0.16409,1.066 -0.13043,0.6122 -0.13043,0.6122 -0.19839,0.7754 -0.19839,0.7754 -0.15411,0.449 -0.15412,0.4489 -0.291,0.7503 -0.29098,0.7502 -0.40541,0.866 -0.40542,0.866 -0.30136,0.506 -0.30136,0.5059 -0.36792,0.5714 -0.36793,0.5714 -0.65974,0.857 -0.65973,0.857 -0.81695,0.8191 -0.81695,0.819 -0.28592,0.2421 -0.28592,0.2421 -0.40788,0.3327 -0.40788,0.3328 -0.77542,0.5304 -0.77543,0.5305 -0.38183,0.2183 -0.38184,0.2183 z m 20.84119,-3.9137 h -0.0327 l -0.56533,-0.5951 -0.56533,-0.5952 -0.38554,-0.6185 -0.38554,-0.6186 -0.24272,-0.6651 -0.24272,-0.6651 -0.0718,-0.6412 -0.0717,-0.6412 0.0675,-0.7245 0.0674,-0.7245 0.21275,-0.6497 0.21275,-0.6497 0.33615,-0.6461 0.33616,-0.6461 0.44376,-0.5816 0.44377,-0.5815 0.46008,-0.4756 0.4601,-0.4756 0.50121,-0.4018 0.50122,-0.4018 0.71756,-0.4505 0.71756,-0.4505 0.0573,0.063 0.0573,0.063 0.14018,0.8571 0.14017,0.857 0.20171,0.7754 0.20171,0.7754 0.27581,1.0835 0.27581,1.0835 0.0857,0.6161 0.0857,0.6161 v 0.6768 0.6767 l -0.082,0.4397 -0.082,0.4397 -0.17541,0.4489 -0.17542,0.4489 -0.43326,0.6609 -0.43326,0.6609 -0.5028,0.441 -0.5028,0.4411 -0.12038,0.07 -0.12039,0.07 -0.0942,-0.094 -0.0942,-0.094 0.008,-0.751 0.008,-0.751 0.0333,-1.1427 0.0333,-1.1427 -0.19002,-0.5501 -0.19,-0.5501 -0.0753,-0.046 -0.0752,-0.047 v 0.3756 0.3755 l -0.12337,0.5973 -0.12336,0.5972 -0.36922,0.9298 -0.36921,0.9297 -0.12798,0.4898 -0.12796,0.4897 0.0515,0.5102 0.0514,0.5101 z m -13.05202,-0.5007 -0.55095,0.4331 v -0.054 -0.054 l 0.37435,-0.4865 0.37437,-0.4866 0.6139,-0.9561 0.6139,-0.9561 0.68301,-1.3991 0.68299,-1.3992 0.42097,-1.2536 0.42095,-1.2536 0.15074,-0.5714 0.15075,-0.5713 0.15674,-0.8163 0.15673,-0.8162 0.14619,-0.8978 0.14619,-0.8979 -0.005,-1.9998 -0.005,-1.9998 -0.17001,-0.9386 -0.17,-0.9387 -0.0948,-0.4489 -0.0948,-0.449 -0.18991,-0.6529 -0.18991,-0.653 -0.23957,-0.7347 -0.23956,-0.7346 -0.34476,-0.8094 -0.34477,-0.8094 -0.41644,-0.8639 -0.41647,-0.8638 -0.80692,-1.4481 -0.80691,-1.4481 -0.075,-0.046 -0.075,-0.046 v -0.1102 -0.1102 l 0.91204,-1.2114 0.91205,-1.2113 0.53397,-0.653 0.53397,-0.653 0.65579,-0.6812 0.65577,-0.6812 0.48975,-0.391 0.48974,-0.391 0.5089,-0.2982 0.50892,-0.2981 0.34813,-0.1249 0.34814,-0.1249 0.72885,-0.1576 0.72886,-0.1576 0.98524,9e-4 0.98525,10e-4 0.69379,0.1155 0.6938,0.1156 0.55131,0.1298 0.55129,0.1297 0.79549,0.2528 0.79549,0.2529 1.10192,0.363 1.10191,0.3631 1.10192,0.2767 1.10192,0.2767 0.61218,0.088 0.61217,0.088 0.19049,0.041 0.1905,0.041 -0.1905,0.1432 -0.19049,0.1432 -0.47781,0.2821 -0.47779,0.282 -0.76113,0.6285 -0.76112,0.6286 -0.54443,0.6366 -0.54443,0.6366 -0.58946,0.857 -0.58946,0.8571 -0.20754,0.3673 -0.20755,0.3673 -0.37151,0.6938 -0.37151,0.6938 -0.48626,1.1019 -0.48628,1.1019 -0.20661,0.5306 -0.20661,0.5305 -0.28074,0.7755 -0.28075,0.7754 -0.59177,1.8365 -0.59179,1.8366 -0.44846,1.3875 -0.44849,1.3877 -0.51564,1.3467 -0.51565,1.3468 -0.50413,1.1019 -0.50416,1.102 -0.32854,0.6121 -0.32854,0.6122 -0.64994,1.0611 -0.64991,1.0611 -0.31963,0.449 -0.31961,0.4489 -0.70386,0.8835 -0.70385,0.8836 -0.74623,0.7811 -0.74624,0.7811 -0.93867,0.8273 -0.93867,0.8273 z m -18.98061,-0.2393 -0.0581,-0.01 -0.77542,-0.5348 -0.77542,-0.5347 -1.10191,-0.8634 -1.10192,-0.8634 -1.37595,-1.3512 -1.37595,-1.3512 -0.873,-1.0611 -0.873,-1.0611 -0.63815,-0.8812 -0.63817,-0.8812 0.0329,-0.033 0.0329,-0.033 0.36467,0.2927 0.36466,0.2928 0.53056,0.3433 0.53055,0.3433 0.53056,0.281 0.53055,0.281 0.65299,0.2546 0.65299,0.2546 0.55095,0.1301 0.55096,0.1302 0.55097,0.1335 0.55095,0.1334 1.63247,-2e-4 1.63247,-3e-4 0.57136,-0.1331 0.57137,-0.1332 0.19349,-0.045 0.1935,-0.045 -0.0528,0.3101 -0.0528,0.3101 -0.11473,0.4897 -0.11475,0.4898 -0.17362,0.7346 -0.17362,0.7346 -0.11333,0.4897 -0.11334,0.4898 -0.1735,0.7346 -0.17349,0.7346 -0.0761,0.4007 -0.0761,0.4007 -0.0845,0.3135 -0.0845,0.3135 z m 52.43345,-34.6105 -0.0892,-0.01 -0.61219,-0.3254 -0.61218,-0.3254 -0.85704,-0.4947 -0.85705,-0.4948 -0.86233,-0.6022 -0.86233,-0.6022 -0.83132,-0.8351 -0.83131,-0.8352 -0.29169,-0.4081 -0.29168,-0.4081 -0.28598,-0.5088 -0.28598,-0.5088 -0.24374,-0.7155 -0.24374,-0.7156 -0.0866,-0.6938 -0.0866,-0.6938 0.0452,-0.9851 0.0451,-0.9852 0.2086,-0.8658 0.2086,-0.8658 0.16441,-0.4171 0.16441,-0.4172 v -0.1237 -0.1238 l -0.46814,-0.5874 -0.46814,-0.5874 -0.84002,-0.9549 -0.84004,-0.9549 -1.03851,-0.9754 -1.03851,-0.9754 -0.69379,-0.5657 -0.6938,-0.5657 -0.77542,-0.5687 -0.77543,-0.5687 -0.70309,-0.4611 -0.70309,-0.461 -1.05182,-0.5901 -1.0518,-0.5902 -1.16924,-0.55956 -1.16923,-0.55956 -0.3,-0.11326 -0.29999,-0.11325 -0.93866,-0.33984 -0.93867,-0.33982 -0.81624,-0.24621 -0.81624,-0.2462 -0.44085,-0.12021 -0.44086,-0.12021 -0.74268,-0.16195 -0.74268,-0.16195 -0.65299,-0.10984 -0.65299,-0.10987 -1.0611,-0.14702 -1.06111,-0.14701 -2.77521,-0.002 -2.7752,-0.002 -1.14272,0.15204 -1.14273,0.15201 -1.18354,0.22568 -1.18355,0.22568 -0.0284,-0.0269 -0.0285,-0.0269 0.37025,-0.51569 0.37026,-0.51566 0.22959,-0.26806 0.22959,-0.26804 0.61217,-0.11338 0.61218,-0.11337 1.18353,-0.14281 1.18355,-0.14284 2.48951,-3.1e-4 2.48953,-3.5e-4 1.18354,0.14377 1.18354,0.14375 1.0611,0.19412 1.06111,0.1941 0.53055,0.11731 0.53056,0.1173 0.89785,0.24554 0.89785,0.24554 0.77544,0.23829 0.77542,0.2383 1.38759,0.55479 1.3876,0.55479 1.14274,0.57165 1.14272,0.57167 0.65299,0.36764 0.65299,0.3677 1.06111,0.6988 1.06111,0.6987 0.61765,0.4578 0.61767,0.4577 0.97399,0.806 0.974,0.8061 1.40293,1.413 1.40293,1.4131 0.84911,1.0598 0.84912,1.0598 0.69509,1.0022 0.69509,1.0023 0.71792,1.2244 0.71792,1.2243 0.44442,0.9387 0.44443,0.9387 0.3689,0.857 0.36892,0.857 0.19762,0.5306 0.19761,0.5305 0.24595,0.7347 0.24593,0.7346 0.16868,0.6121 0.1687,0.6122 0.0718,0.2857 0.0718,0.2857 0.13331,0.6122 0.13333,0.6121 0.099,0.5102 0.099,0.5101 z m -17.42409,-10.8138 -0.0714,0.044 -0.68354,-0.4307 -0.68354,-0.4307 -0.40812,-0.308 -0.40811,-0.3081 -0.59792,-0.5862 -0.59792,-0.5862 -0.39456,-0.5306 -0.39455,-0.5305 -0.32348,-0.5714 -0.32347,-0.5713 -0.25897,-0.755 -0.25896,-0.755 -0.0788,-0.6938 -0.0788,-0.6939 0.0781,-0.6734 0.0781,-0.6734 0.1692,-0.4897 0.16919,-0.4897 0.13241,-0.2857 0.13242,-0.2857 0.36341,-0.5714 0.36341,-0.5714 0.50015,-0.5101 0.50015,-0.51014 h 0.0542 0.0542 l -0.0382,0.51014 -0.0381,0.5101 0.12431,0.4898 0.12431,0.4897 0.38381,0.9795 0.3838,0.9795 0.13565,0.9387 0.13565,0.9386 0.19961,-0.4897 0.19963,-0.4897 v -2.0568 -2.0567 l 0.0973,-0.097 0.0973,-0.097 0.4099,0.3432 0.40992,0.3432 0.3747,0.4167 0.37469,0.4168 0.30839,0.5372 0.30837,0.5372 0.0943,0.2448 0.0942,0.2449 0.12344,0.5971 0.12342,0.5971 v 0.5109 0.5108 l -0.12682,0.8482 -0.12681,0.8482 -0.28357,1.0639 -0.28358,1.0639 -0.18937,0.7755 -0.18936,0.7754 -0.0941,0.4947 -0.0941,0.4946 v 0.2555 0.2556 z m -11.3354,-6.6537 -0.14284,-0.01 -0.93867,-0.1444 -0.93866,-0.1444 -0.73323,-0.2237 -0.73322,-0.2237 -0.49114,-0.2479 -0.49113,-0.2478 -0.57633,-0.3888 -0.57634,-0.3888 -0.43623,-0.4772 -0.43624,-0.4773 -0.26859,-0.4081 -0.26858,-0.4082 -0.20919,-0.6287 -0.20918,-0.6286 -0.05,-0.5957 -0.05,-0.59565 0.0953,-0.61218 0.0953,-0.61219 0.2206,-0.64629 0.22061,-0.64629 0.10204,-0.0339 0.10203,-0.0339 v 0.17329 0.17331 l 0.17201,0.33719 0.17201,0.33718 1.03359,1.02675 1.0336,1.02678 0.26144,0.4897 0.26144,0.4897 -6.7e-4,-0.2857 -6.6e-4,-0.2856 -0.10743,-0.4898 -0.10743,-0.48968 -0.13373,-0.31405 -0.13373,-0.31404 -0.36481,-0.58532 -0.36483,-0.58532 -0.17906,-0.43087 -0.17906,-0.43085 0.0845,-0.0844 0.0844,-0.0845 0.68309,0.21476 0.68311,0.21476 0.53055,0.31619 0.53056,0.31619 0.41595,0.43474 0.41597,0.43474 0.26804,0.447 0.26804,0.44698 0.19717,0.52377 0.19716,0.5238 0.1186,0.5393 0.11861,0.5392 0.16772,0.8979 0.16771,0.8978 0.16385,0.7346 0.16384,0.7346 0.11749,0.3078 0.11747,0.3077 v 0.1616 0.1616 z"
         id="path5" />
    </g>
  </g>
</svg>
